<?xml version="1.0" encoding="UTF-8" standalone="no"?>
<svg width="523px" height="504px" viewBox="0 0 523 504" version="1.1" xmlns="http://www.w3.org/2000/svg" xmlns:xlink="http://www.w3.org/1999/xlink" xmlns:sketch="http://www.bohemiancoding.com/sketch/ns">
    <!-- Generator: Sketch 3.2.2 (9983) - http://www.bohemiancoding.com/sketch -->
    <title>01 latenitesuperman</title>
    <desc>Created with Sketch.</desc>
    <defs></defs>
    <g id="Page-1" stroke="none" stroke-width="1" fill="none" fill-rule="evenodd" sketch:type="MSPage">
        <g id="01-latenitesuperman" sketch:type="MSLayerGroup" transform="translate(0.000000, -102.000000)">
            <path d="M299.566038,303.729 L522.80327,347.002 L522.80327,465.017 L516.962767,471.466 L508.527044,469.531 L508.527044,372.797 L455.961509,427.613 L455.961509,533.375 L449.47195,541.114 L438.44,537.244 L438.44,429.548 L232.07522,380.985 L299.566038,303.729" id="Fill-2" fill="#000407" sketch:type="MSShapeGroup"></path>
            <path d="M358.826415,225.137 L481.261635,245.773 L481.261635,249.642 L450.977358,350.675 L405.551447,398.827 L276.627673,371.741 L301.719497,320.58 L358.826415,225.137" id="Fill-3" fill="#4C5159" sketch:type="MSShapeGroup"></path>
            <path d="M478.665409,247.923 L449.679245,339.067 L316.862138,312.842 L360.124528,228.146 L478.665409,247.923" id="Fill-4" fill="#6B6F75" sketch:type="MSShapeGroup"></path>
            <path d="M379.205786,256.667 L359.750189,314 L411.626415,324.122 L421.255597,296.248 L404.816855,292.944 L414.94717,263.392 L379.205786,256.667" id="Fill-5" fill="#94979B" sketch:type="MSShapeGroup"></path>
            <path d="M418.228679,253.82 L414.94717,263.392 L431.527799,266.512 L421.255597,296.248 L443.321509,300.682 L456.624654,260.897 L418.228679,253.82" id="Fill-6" fill="#A9ABAF" sketch:type="MSShapeGroup"></path>
            <path d="M414.94717,263.392 L404.816855,292.944 L421.255597,296.248 L431.527799,266.512 L414.94717,263.392" id="Fill-7" fill="#C1C3C5" sketch:type="MSShapeGroup"></path>
            <path d="M368.027925,214.707 C364.855094,214.707 362.411824,215.252 361.912704,216.345 C361.415597,217.432 360.687044,221.428 361.595723,225.603 L384.325786,229.434 C386.062642,226.786 387.11522,224.034 387.42717,222.518 C387.916226,220.134 384.65283,218.145 377.91673,216.155 C374.650314,215.19 371.015597,214.707 368.027925,214.707" id="Fill-8" fill="#9CACB7" sketch:type="MSShapeGroup"></path>
            <path d="M361.595723,225.603 C361.810063,226.587 362.114969,227.58 362.534591,228.548 L382.473208,231.875 C383.158491,231.099 383.776352,230.272 384.325786,229.434 L361.595723,225.603" id="Fill-9" fill="#B3B8BD" sketch:type="MSShapeGroup"></path>
            <path d="M362.534591,228.548 C363.815597,231.497 366.168302,234.207 370.283019,235.667 C371.538868,236.113 372.731321,236.313 373.859371,236.313 C377.381384,236.313 380.272453,234.365 382.473208,231.875 L362.534591,228.548" id="Fill-10" fill="#C0C4C8" sketch:type="MSShapeGroup"></path>
            <path d="M390.772075,219.283 C390.772075,219.283 385.080503,214.947 377.509182,213.519 C369.938868,212.09 361.58566,214.315 356.099371,212.697 C350.612075,211.078 347.645535,205.526 335.244025,202.1 C322.841509,198.673 317.655094,200.807 313.414591,200.066 C309.175094,199.325 299.457358,197.978 296.294591,197.702 C293.13283,197.426 291.995723,199.976 291.995723,199.976 C291.995723,199.976 293.469937,199.994 294.588931,200.654 C295.707925,201.315 295.853836,201.812 295.853836,201.812 C295.853836,201.812 311.167547,206.459 311.704906,208.62 C312.241258,210.781 311.15044,225.375 328.019874,228.684 C344.890314,231.993 350.294088,215.771 355.563019,217.516 C360.144654,219.034 354.790189,234.398 369.748679,237.942 C384.708176,241.486 387.837736,223.383 387.837736,223.383 L390.021384,222.117 L390.772075,219.283 L390.772075,219.283 Z M328.965786,225.809 C313.774843,223.49 314.205535,208.014 314.956226,205.271 C315.491572,203.317 323.190692,202.53 333.263648,204.98 C343.336604,207.431 349.29283,212.57 348.965786,214.505 C348.638742,216.44 341.766792,227.763 328.965786,225.809 L328.965786,225.809 Z M370.649308,235.238 C360.103396,232.482 360.753459,220.251 361.472956,218.235 C362.191447,216.218 369.770818,215.519 376.08327,216.811 C382.395723,218.103 385.536352,219.666 385.27673,221.883 C384.838994,225.63 380.308679,237.763 370.649308,235.238 L370.649308,235.238 Z" id="Fill-11" fill="#000000" sketch:type="MSShapeGroup"></path>
            <path d="M233.147925,285.541 L270.138113,182.359 L381.755723,191.71 L338.926038,316.174 L233.147925,285.541" id="Fill-12" fill="#F2D3B3" sketch:type="MSShapeGroup"></path>
            <path d="M373.35522,242.389 C373.35522,249.326 367.696855,254.949 360.716226,254.949 C353.736604,254.949 348.077233,249.326 348.077233,242.389 C348.077233,235.453 353.736604,229.83 360.716226,229.83 C367.696855,229.83 373.35522,235.453 373.35522,242.389" id="Fill-13" fill="#F2D3B3" sketch:type="MSShapeGroup"></path>
            <path d="M274.283019,221.323 C274.283019,228.259 268.623648,233.883 261.644025,233.883 C254.663396,233.883 249.005031,228.259 249.005031,221.323 C249.005031,214.386 254.663396,208.763 261.644025,208.763 C268.623648,208.763 274.283019,214.386 274.283019,221.323" id="Fill-14" fill="#E2BB98" sketch:type="MSShapeGroup"></path>
            <path d="M388.121509,220.856 C388.121509,220.856 368.024906,227.857 365.208302,228.898 C360.557233,230.618 358.827421,234.38 358.286038,236.1 C357.686289,238.008 359.042767,238.249 359.691824,237.604 C360.993962,236.311 361.206289,233.52 366.181384,231.8 C369.73761,230.571 386.299119,225.486 386.299119,225.486 L388.121509,220.856" id="Fill-15" fill="#000000" sketch:type="MSShapeGroup"></path>
            <path d="M242.232704,258.456 L263.648553,196.761 C263.648553,196.761 260.40327,191.817 259.321509,183.864 C258.646289,178.893 260.466667,172.033 260.466667,172.033 C260.466667,172.033 258.456101,168.386 253.481006,168.171 C245.050314,167.807 241.8,174.405 241.8,174.405 C241.8,174.405 244.396226,165.592 253.264654,158.498 C262.134088,151.404 272.084277,147.535 272.084277,147.535 C272.084277,147.535 266.027421,145.815 262.35044,136.572 C258.433962,126.727 262.35044,117.225 262.35044,117.225 C262.35044,117.225 267.109182,127.973 274.031447,132.702 C280.953711,137.432 287.659623,139.151 287.659623,139.151 C287.659623,139.151 303.049811,135.434 316.213082,130.338 C332.869182,123.889 325.297862,105.617 325.297862,105.617 C325.297862,105.617 335.464403,118.085 333.734591,128.188 C332.003774,138.291 326.595975,141.086 326.595975,141.086 C326.595975,141.086 333.301887,140.011 337.627925,137.217 C341.953962,134.422 345.415597,125.609 345.415597,125.609 L344.766541,139.796 C344.766541,139.796 353.634969,140.011 359.042767,135.282 C364.451572,130.553 366.181384,118.515 366.181384,118.515 C366.181384,118.515 369.426667,128.618 368.77761,134.637 C368.128553,140.656 364.23522,146.245 364.23522,146.245 C364.23522,146.245 379.219874,140.681 383.702893,130.123 C388.139623,119.675 383.52478,102.536 383.702893,102.393 C383.702893,102.393 403.638491,123.378 402.089811,147.75 C400.791698,168.171 374.942138,196.869 374.942138,196.869 L361.427673,228 L352.035975,236.667 L345.662138,255 C345.662138,255 306.694591,271.999 306.478239,271.999 C306.261887,271.999 252.83195,262.97 252.83195,262.97 L242.232704,258.456" id="Fill-16" fill="#593328" sketch:type="MSShapeGroup"></path>
            <path d="M402.089811,149.255 C402.194465,118.729 384.135597,103.037 384.135597,103.037 C384.135597,103.037 398.426918,115.302 395.708931,142.376 C393.724528,162.138 386.906918,176.1 371.37283,187.303 C357.820126,197.077 335.464403,202.78 335.464403,202.78 C335.464403,202.78 401.873459,212.346 402.089811,149.255" id="Fill-17" fill="#593328" sketch:type="MSShapeGroup"></path>
            <path d="M323.308428,148.076 C323.308428,148.076 296.982893,153.476 283.528805,150.958 C270.073711,148.44 264.272453,142.422 254.109937,142.125 C239.717987,141.704 244.585409,152.22 244.585409,152.22 C244.585409,152.22 241.775849,142.292 255.379874,145.7 C265.193208,148.159 267.903145,153.096 283.691824,156 C299.480503,158.904 325.386415,151.977 325.386415,151.977 L323.308428,148.076" id="Fill-18" fill="#593328" sketch:type="MSShapeGroup"></path>
            <path d="M367.572075,201.761 C367.572075,201.761 367.321509,199.655 379.081006,192.688 C390.839497,185.72 399.197736,186.412 407.010566,179.946 C418.074717,170.79 407.419119,166.114 407.419119,166.114 C407.419119,166.114 416.139623,171.703 403.67673,178.102 C394.684528,182.719 391.85283,180.046 378.048553,188.195 C368.752453,193.683 369.158994,198.291 369.158994,198.291 L367.572075,201.761" id="Fill-19" fill="#593328" sketch:type="MSShapeGroup"></path>
            <path d="M383.022642,188.09 C383.022642,188.09 387.255094,186.828 390.641258,189.983 C394.027421,193.138 392.758491,201.341 394.239748,205.547 C395.721006,209.754 400.165786,210.385 400.165786,210.385 C400.165786,210.385 394.451069,209.754 392.969811,205.126 C391.488553,200.499 392.758491,195.031 390.006289,192.086 C387.255094,189.142 381.117736,191.035 381.117736,191.035 L383.022642,188.09" id="Fill-20" fill="#593328" sketch:type="MSShapeGroup"></path>
            <path d="M279.084025,141.704 C279.084025,141.704 284.163774,130.136 280.097358,120.779 C275.613333,110.458 263.422138,108.263 263.422138,108.263 C263.422138,108.263 273.157987,108.893 279.506667,117.096 C286.593962,126.251 282.264906,142.037 281.221384,141.792 L279.084025,141.704" id="Fill-21" fill="#593328" sketch:type="MSShapeGroup"></path>
            <path d="M401.838239,146.121 C401.838239,146.121 399.413082,134.387 407.342642,125.111 C414.666415,116.543 429.127799,118.28 429.127799,118.28 C429.127799,118.28 418.701635,115.307 409.669182,121.513 C400.109434,128.082 398.854591,144.743 399.924277,144.819 L401.838239,146.121" id="Fill-22" fill="#593328" sketch:type="MSShapeGroup"></path>
            <path d="M345.848302,508.351 L343.901132,520.174 L344.982893,531.137 C344.982893,531.137 346.303145,533.601 351.905157,534.146 C362.937107,535.221 367.695849,528.88 367.695849,528.88 L371.265157,522.323 L375.483522,522.431 L397.22239,497.495 L401.982138,481.803 L397.22239,478.148 L379.376855,493.196 L363.261132,496.635 L345.848302,508.351" id="Fill-23" fill="#000000" sketch:type="MSShapeGroup"></path>
            <path d="M307.776352,406.566 C307.776352,406.566 354.067673,424.193 360.989937,436.23 C367.912201,448.268 363.261132,508.458 363.261132,508.458 C363.307421,508.468 362.269937,513.063 357.74566,513.617 C349.849308,514.585 348.552201,511.038 348.552201,511.038 C348.552201,511.038 350.607044,465.466 347.578113,453.428 C344.550189,441.39 314.698616,433.221 314.698616,433.221 C314.698616,433.221 298.681509,451.561 274.886792,455 C251.092075,458.439 219.952453,442.679 219.952453,442.679 L190.533585,405.706 L307.776352,406.566" id="Fill-24" fill="#6B6F75" sketch:type="MSShapeGroup"></path>
            <path d="M367.695849,369.162 L376.348931,347.236 L401.873459,342.507 L405.766792,346.806 L412.256352,348.096 L413.98717,353.255 L418.745912,355.834 L412.646792,361.262 L403.604277,359.704 L390.192453,373.031 L371.589182,376.471 L367.695849,369.162" id="Fill-25" fill="#F2D3B3" sketch:type="MSShapeGroup"></path>
            <path d="M319.457358,276.728 C319.457358,276.728 332.111447,273.611 338.926038,307.467 C342.064654,323.066 354.500377,366.153 354.500377,366.153 L370.075723,362.928 C370.075723,362.928 376.564277,361.208 379.160503,368.087 C381.755723,374.966 376.131572,376.256 376.131572,376.256 L343.144403,380.985 L330.272956,343.366 L309.939874,408.07 C309.939874,408.07 298.029434,424.184 268.177862,426.333 C238.326289,428.483 205.243522,421.398 205.243522,421.398 L203.512704,273.503 L319.457358,276.728" id="Fill-26" fill="#73D2EF" sketch:type="MSShapeGroup"></path>
            <path d="M327.713962,550.087 C326.173333,549.858 324.919497,548.625 324.737358,547.014 L302.394717,454.807 C302.177358,452.886 315.29434,449.133 317.228428,448.918 C319.163522,448.699 320.903396,450.086 321.119748,452.007 L331.737107,546.235 C331.954465,548.157 330.562767,549.888 328.629686,550.103 C328.31673,550.138 328.009811,550.131 327.713962,550.087" id="Fill-27" fill="#000407" sketch:type="MSShapeGroup"></path>
            <path d="M143.245031,562.029 C144.799748,561.945 146.165283,560.836 146.499371,559.249 L177.494088,469.547 C177.892579,467.655 165.190189,462.689 163.285283,462.294 C161.379371,461.894 159.515723,463.112 159.118239,465.004 L139.604277,557.817 C139.205786,559.71 140.427421,561.564 142.331321,561.959 C142.639245,562.023 142.945157,562.045 143.245031,562.029" id="Fill-28" fill="#000407" sketch:type="MSShapeGroup"></path>
            <path d="M261.018113,605.385 C259.270189,604.883 258.010314,603.263 258.050566,601.371 L246.516478,485.197 C246.563774,482.939 262.332327,480.608 264.603522,480.656 C266.878742,480.699 268.676981,482.571 268.628679,484.829 L266.274969,601.543 C266.226667,603.801 264.346918,605.592 262.075723,605.543 C261.708428,605.537 261.354214,605.481 261.018113,605.385" id="Fill-29" fill="#000407" sketch:type="MSShapeGroup"></path>
            <path d="M176.132579,444.226 C176.132579,444.226 166.340377,445.902 165.697358,452.936 C164.862138,462.062 177.235472,473.381 177.235472,473.381 C177.235472,473.381 246.108931,489.143 257.378365,488.728 C268.648805,488.313 326.817358,448.374 326.817358,448.374 C326.817358,448.374 334.331321,443.811 332.661887,435.515 C331.72805,430.877 325.565535,425.145 315.547925,428.878 C305.529308,432.611 290.994465,447.022 273.880503,452 C256.766541,456.978 230.469182,454.074 230.469182,454.074 L176.132579,444.226" id="Fill-30" fill="#FFFFFF" sketch:type="MSShapeGroup"></path>
            <path d="M247.896101,321.383 C260.033962,320.251 265.424654,324.603 267.08805,338.867 C268.300629,349.273 275.798491,432.01 276.765535,443.938 C277.733585,455.865 269.453836,465.391 254.910943,465.471 C240.36805,465.55 198.927044,463.728 192.878239,462.954 C186.83044,462.179 180.158742,460.964 179.227925,449.341 C178.296101,437.718 167.909182,329.334 167.909182,329.334 C167.909182,329.334 239.273208,322.188 247.896101,321.383" id="Fill-31" fill="#FFFFFF" sketch:type="MSShapeGroup"></path>
            <path d="M0.175849057,443.539 C0.175849057,443.539 8.82893082,427.202 34.3544654,413.444 C59.8789937,399.687 86.2699371,396.677 86.2699371,396.677 C86.2699371,396.677 65.5031447,372.601 26.1340881,392.808 C-1.7572327,407.123 0.175849057,443.539 0.175849057,443.539" id="Fill-32" fill="#A52626" sketch:type="MSShapeGroup"></path>
            <path d="M334.383648,291.99 C334.631195,291.848 330.386667,275.516 315.238994,267.484 C301.206289,260.044 279.230943,251.831 250.735849,252 C235.476478,252.091 208.551195,257.913 183.178616,273.933 C152.957736,293.015 127.862893,322.064 110.930063,333.048 C79.7803774,353.255 49.0633962,357.984 23.970566,382.49 C-1.12125786,406.996 1.47396226,438.38 1.47396226,438.38 C1.47396226,438.38 -4.15018868,386.359 75.4543396,395.388 C155.057862,404.416 177.121761,509.318 177.121761,509.318 C177.121761,509.318 203.668679,463.067 217.572579,421.613 C235.094088,369.377 282.937107,290 317.942893,284.681 C329.252579,282.963 334.383648,291.99 334.383648,291.99" id="Fill-33" fill="#EB3636" sketch:type="MSShapeGroup"></path>
            <path d="M460.766541,390.843 L463.07195,360.487 L430.023396,360.487 L432.333836,390.913 L432.312704,391.104 C432.312704,391.344 432.345912,391.581 432.402264,391.815 L432.412327,391.945 L432.445535,391.945 C433.354214,395.125 439.316478,397.583 446.553711,397.583 C453.79195,397.583 459.754214,395.125 460.662893,391.945 L460.683019,391.945 L460.689057,391.865 C460.753459,391.615 460.795723,391.362 460.795723,391.104 L460.766541,390.843" id="Fill-36" fill="#FFFFFF" sketch:type="MSShapeGroup"></path>
            <path d="M463.07195,360.685 C463.07195,364.837 455.673711,368.203 446.547673,368.203 C437.421635,368.203 430.023396,364.837 430.023396,360.685 C430.023396,356.533 437.421635,353.167 446.547673,353.167 C455.673711,353.167 463.07195,356.533 463.07195,360.685" id="Fill-37" fill="#CCCCCC" sketch:type="MSShapeGroup"></path>
            <path d="M461.578616,382.25 C457.352201,382.25 453.914717,378.833 453.914717,374.633 C453.914717,370.433 457.352201,367.016 461.578616,367.016 C465.805031,367.016 469.244528,370.433 469.244528,374.633 C469.244528,378.833 465.805031,382.25 461.578616,382.25 L461.578616,382.25 Z M461.578616,369.391 C458.67044,369.391 456.303648,371.743 456.303648,374.633 C456.303648,377.524 458.67044,379.876 461.578616,379.876 C464.487799,379.876 466.854591,377.524 466.854591,374.633 C466.854591,371.743 464.487799,369.391 461.578616,369.391 L461.578616,369.391 Z" id="Fill-38" fill="#FFFFFF" sketch:type="MSShapeGroup"></path>
            <path d="M459.210818,364.574 L471.192704,336.557 L439.890063,326.023 L432.257358,355.577 L432.175849,355.751 C432.098365,355.979 432.054088,356.214 432.03195,356.453 L431.998742,356.58 L432.030943,356.59 C431.864906,359.892 436.718239,364.121 443.574088,366.428 C450.428931,368.735 456.870189,368.307 458.756981,365.585 L458.776101,365.591 L458.807296,365.518 C458.949182,365.301 459.070943,365.075 459.154465,364.831 L459.210818,364.574" id="Fill-39" fill="#FFFFFF" sketch:type="MSShapeGroup"></path>
            <path d="M471.129308,336.745 C469.788931,340.678 461.695346,341.507 453.050314,338.598 C444.407296,335.689 438.486289,330.143 439.82566,326.21 C441.166038,322.277 449.260629,321.447 457.904654,324.357 C466.548679,327.266 472.469686,332.812 471.129308,336.745" id="Fill-40" fill="#CCCCCC" sketch:type="MSShapeGroup"></path>
            <path d="M462.753962,356.694 C458.749937,355.347 456.597484,351.015 457.952956,347.036 C459.308428,343.058 463.667673,340.918 467.670692,342.266 C471.673711,343.613 473.828176,347.945 472.472704,351.923 C471.117233,355.901 466.755975,358.042 462.753962,356.694 L462.753962,356.694 Z M466.903899,344.514 C464.149686,343.587 461.148931,345.061 460.216101,347.798 C459.282264,350.536 460.765535,353.519 463.519748,354.446 C466.274969,355.373 469.27673,353.9 470.20956,351.161 C471.14239,348.424 469.660126,345.442 466.903899,344.514 L466.903899,344.514 Z" id="Fill-41" fill="#FFFFFF" sketch:type="MSShapeGroup"></path>
            <path d="M501.938868,368.116 L504.036981,340.494 L473.964025,340.494 L476.06717,368.18 L476.04805,368.354 C476.04805,368.573 476.078239,368.788 476.12956,369.001 L476.138616,369.119 L476.168805,369.119 C476.994969,372.013 482.420881,374.25 489.007044,374.25 C495.592201,374.25 501.018113,372.013 501.844277,369.119 L501.863396,369.119 L501.868428,369.047 C501.927799,368.819 501.966038,368.589 501.966038,368.354 L501.938868,368.116" id="Fill-42" fill="#FFFFFF" sketch:type="MSShapeGroup"></path>
            <path d="M504.036981,340.674 C504.036981,344.453 497.304906,347.516 489.001006,347.516 C480.696101,347.516 473.964025,344.453 473.964025,340.674 C473.964025,336.896 480.696101,333.833 489.001006,333.833 C497.304906,333.833 504.036981,336.896 504.036981,340.674" id="Fill-43" fill="#CCCCCC" sketch:type="MSShapeGroup"></path>
            <path d="M478.75195,529.843 L476.446541,499.487 L509.495094,499.487 L507.184654,529.913 L507.205786,530.104 C507.205786,530.344 507.172579,530.581 507.116226,530.815 L507.106164,530.945 L507.072956,530.945 C506.164277,534.125 500.202013,536.583 492.96478,536.583 C485.726541,536.583 479.764277,534.125 478.856604,530.945 L478.835472,530.945 L478.829434,530.865 C478.765031,530.615 478.722767,530.362 478.722767,530.104 L478.75195,529.843" id="Fill-44" fill="#FFFFFF" sketch:type="MSShapeGroup"></path>
            <path d="M476.446541,499.685 C476.446541,503.837 483.84478,507.203 492.970818,507.203 C502.097862,507.203 509.496101,503.837 509.496101,499.685 C509.496101,495.533 502.097862,492.167 492.970818,492.167 C483.84478,492.167 476.446541,495.533 476.446541,499.685" id="Fill-45" fill="#CCCCCC" sketch:type="MSShapeGroup"></path>
            <path d="M470.274969,513.633 C470.274969,509.433 473.713459,506.016 477.939874,506.016 C482.166289,506.016 485.60478,509.433 485.60478,513.633 C485.60478,517.833 482.166289,521.25 477.939874,521.25 C473.713459,521.25 470.274969,517.833 470.274969,513.633 L470.274969,513.633 Z M472.663899,513.633 C472.663899,516.524 475.030692,518.876 477.939874,518.876 C480.84805,518.876 483.214843,516.524 483.214843,513.633 C483.214843,510.743 480.84805,508.391 477.939874,508.391 C475.030692,508.391 472.663899,510.743 472.663899,513.633 L472.663899,513.633 Z" id="Fill-46" fill="#FFFFFF" sketch:type="MSShapeGroup"></path>
        </g>
    </g>
</svg>